<?xml version="1.0" standalone="no"?>
<!DOCTYPE svg PUBLIC "-//W3C//DTD SVG 20010904//EN"
 "http://www.w3.org/TR/2001/REC-SVG-20010904/DTD/svg10.dtd">
<svg version="1.0" xmlns="http://www.w3.org/2000/svg"
 width="145.000000pt" height="145.000000pt" viewBox="0 0 145.000000 145.000000"
 preserveAspectRatio="xMidYMid meet">
<metadata>
Created by potrace 1.11, written by Peter Selinger 2001-2013
</metadata>
<g transform="translate(0.000000,145.000000) scale(0.100000,-0.100000)"
fill="#000000" stroke="none">
<path d="M725 1386 c-113 -36 -232 -138 -298 -256 -45 -81 -77 -212 -78 -317
-1 -99 -6 -123 -29 -123 -25 0 -35 -17 -13 -23 13 -3 7 -9 -21 -21 -38 -17
-40 -17 -65 2 -27 20 -29 38 -20 131 l4 34 -53 3 c-84 4 -86 0 -66 -164 6 -47
47 -103 95 -128 63 -32 154 -3 225 71 23 24 54 51 68 60 25 17 27 17 47 -1 39
-35 51 -74 57 -180 3 -71 0 -134 -12 -207 -15 -90 -16 -110 -4 -133 19 -40 56
-63 121 -75 91 -16 97 -11 98 79 1 110 16 153 61 175 51 25 97 13 121 -33 14
-28 17 -53 15 -120 l-3 -85 30 -3 c40 -5 98 13 120 38 16 17 20 46 27 168 9
161 22 234 70 384 25 80 33 96 41 81 13 -25 37 -43 58 -43 16 0 15 5 -7 48
l-25 49 25 68 c17 42 26 88 26 123 0 49 -4 58 -33 86 -18 17 -47 61 -65 98
-65 133 -238 228 -412 227 -36 0 -83 -6 -105 -13z m487 -204 c31 -53 36 -77
12 -68 -8 3 -12 2 -9 -4 3 -6 1 -10 -4 -10 -6 0 -11 5 -11 10 0 6 -13 10 -29
10 -62 0 -71 21 -55 122 l7 38 31 -26 c17 -14 43 -47 58 -72z m118 -165 c-1
-7 -8 0 -16 16 -8 15 -19 27 -24 27 -6 0 -10 6 -10 13 0 6 12 -1 25 -16 14
-15 25 -33 25 -40z m-708 14 c21 -26 36 -95 44 -203 l6 -83 -26 37 c-26 38
-35 101 -16 113 17 11 12 38 -6 31 -9 -4 -22 -2 -29 4 -10 8 -15 4 -20 -19 -4
-17 -11 -33 -16 -36 -5 -4 -9 -21 -9 -38 -1 -29 -2 -30 -14 -14 -12 15 -17 16
-42 5 l-28 -13 30 -6 c26 -6 27 -7 4 -7 -14 -1 -37 9 -51 21 -26 21 -26 24
-14 70 18 71 40 90 93 83 40 -5 43 -4 37 14 -6 18 -4 19 19 10 17 -6 26 -6 26
0 0 12 -45 31 -75 33 -11 1 -33 -2 -50 -6 -30 -7 -30 -7 5 13 44 25 107 21
132 -9z m678 -56 c0 -16 -5 -37 -10 -45 -7 -11 -10 3 -10 45 0 42 3 56 10 45
5 -8 10 -28 10 -45z m-873 -48 c-5 -26 -14 -47 -19 -47 -15 0 -8 68 8 85 23
22 24 17 11 -38z m899 26 c-11 -44 -38 -114 -43 -109 -6 5 37 136 44 136 3 0
2 -12 -1 -27z m-29 -205 c7 -16 11 -28 9 -28 -8 0 -36 58 -35 72 0 9 2 8 6 -2
3 -8 12 -27 20 -42z m-851 -94 c-44 -38 -91 -62 -138 -70 -25 -5 -15 3 37 29
39 20 81 48 94 61 13 14 29 22 34 19 6 -4 -5 -20 -27 -39z"/>
</g>
</svg>
